# xmcd
#
# Track frame offsets:
# 150
# 14061
# 28090
# 45449
# 58546
# 73955
# 87126
# 100828
# 114199
# 128776
# 145765
# 162644
#
# Disc length: 2342 seconds
#
# Revision: 1
# Processed by: cddbd v1.5PL3 Copyright (c) Steve Scherf et al.
# Submitted via: Easy CD Ripper 1.45
#
DISCID=a209240c
DTITLE=Lourenco and Lourival - Velha Porteira
DYEAR=2004
DGENRE=Country
TTITLE0=A Camisinha
TTITLE1=Lourenco and Lourival - Colarinho Branco
TTITLE2=Lourenco and Lourival - Velha Porteira
TTITLE3=Lourenco and Lourival - A Fazendinha
TTITLE4=Lourenco and Lourival - Sonho de Cores
TTITLE5=Lourenco and Lourival - Paixao e Ressaca
TTITLE6=Lourenco and Lourival - Bailinho do Sertao
TTITLE7=Lourenco and Lourival - Ponta de Espada
TTITLE8=Lourenco and Lourival - Anel de Noivado
TTITLE9=Lourenco and Lourival - Chorando Outra Vez
TTITLE10=Filhas da Bahia
TTITLE11=Casa Modesta
EXTD=
EXTT0=
EXTT1=
EXTT2=
EXTT3=
EXTT4=
EXTT5=
EXTT6=
EXTT7=
EXTT8=
EXTT9=
EXTT10=
EXTT11=
PLAYORDER=
